Coordinates
version=1
nRows=11
nColumns=46
inDegrees=yes

Units are S.I. units (second, meters, Newtons, ...)
Angles are in degrees.

endheader
time	pelvis_tilt	pelvis_list	pelvis_rotation	pelvis_tx	pelvis_ty	pelvis_tz	bb_angle	bb_tx	bb_ty	bb_tz	hip_flexion_r	hip_adduction_r	hip_rotation_r	knee_angle_r	knee_angle_r_beta	ankle_angle_r	subtalar_angle_r	mtp_angle_r	crank_angle_r	hip_flexion_l	hip_adduction_l	hip_rotation_l	knee_angle_l	knee_angle_l_beta	ankle_angle_l	subtalar_angle_l	mtp_angle_l	crank_angle_l	lumbar_extension	lumbar_bending	lumbar_rotation	arm_flex_r	arm_add_r	arm_rot_r	elbow_flex_r	pro_sup_r	wrist_flex_r	wrist_dev_r	arm_flex_l	arm_add_l	arm_rot_l	elbow_flex_l	pro_sup_l	wrist_flex_l	wrist_dev_l
      7.50500000	    -14.17820622	      3.30184697	      1.06846706	      0.14886506	      1.14961527	     -0.24729777	      0.00000000	      0.50000000	      0.00000000	      0.25000000	     45.61020750	     -8.01389567	     -4.72498955	     44.01859581	      0.76826943	     -4.04747063	     -2.74064102	      0.00000000	      0.00000000	     89.30753099	     -2.96730081	      3.01731631	    114.80373746	      2.00370321	      2.39545743	     -2.12072778	      0.00000000	      0.00000000	    -58.08143213	     -2.10336252	     -1.17964964	     89.78874160	     -7.49786477	     30.75086108	     38.05673412	     20.77768846	      0.00000000	      0.00000000	     89.68474093	     -3.65980336	     33.61364006	     40.85661619	     25.69160725	      0.00000000	      0.00000000
      7.51000000	    -14.19007719	      3.61179769	      1.34190331	      0.14915340	      1.15069937	     -0.24778172	      0.00000000	      0.50000000	      0.00000000	      0.25000000	     45.25742922	     -8.62155586	     -4.92220862	     44.57420136	      0.77796658	     -3.82386424	     -2.44605950	      0.00000000	      0.00000000	     89.86668383	     -2.62472893	      2.60736538	    114.17234040	      1.99268325	      1.96781015	     -2.08071804	      0.00000000	      0.00000000	    -58.14683584	     -2.22949878	     -1.50725886	     89.78689021	     -7.69204495	     30.77070256	     37.92922799	     20.75374646	      0.00000000	      0.00000000	     89.68929212	     -3.27990267	     33.44155686	     40.74954041	     25.59298591	      0.00000000	      0.00000000
      7.51500000	    -14.17862210	      4.02506322	      1.63438720	      0.14929346	      1.15188328	     -0.24831148	      0.00000000	      0.50000000	      0.00000000	      0.25000000	     44.97990691	     -9.32747706	     -4.94997947	     45.28921090	      0.79044585	     -3.42069495	     -1.76872446	      0.00000000	      0.00000000	     90.30145944	     -2.22267693	      2.04199819	    113.41236804	      1.97941923	      1.43037574	     -2.45758549	      0.00000000	      0.00000000	    -58.23425210	     -2.38932609	     -1.94449158	     89.78623681	     -7.83909933	     30.90915296	     37.74135226	     20.73077942	      0.00000000	      0.00000000	     89.69898653	     -2.72970128	     32.83781568	     40.44082075	     25.30718945	      0.00000000	      0.00000000
      7.52000000	    -14.10570843	      4.09828705	      1.80970740	      0.14937545	      1.15292675	     -0.24824597	      0.00000000	      0.50000000	      0.00000000	      0.25000000	     44.66232154	     -9.55118439	     -5.02275086	     46.03425599	      0.80344934	     -3.31359106	     -1.91273997	      0.00000000	      0.00000000	     90.70656861	     -2.08894658	      1.91774884	    112.64372144	      1.96600382	      0.91217174	     -2.17431298	      0.00000000	      0.00000000	    -58.36972651	     -2.38434787	     -2.00805474	     89.78674775	     -7.89223028	     30.90227614	     37.68746724	     20.71761542	      0.00000000	      0.00000000	     89.70095019	     -2.57181656	     32.77935497	     40.46709245	     25.27456110	      0.00000000	      0.00000000
      7.52500000	    -14.08550723	      4.29419667	      2.01200010	      0.14942262	      1.15379931	     -0.24848668	      0.00000000	      0.50000000	      0.00000000	      0.25000000	     44.53121527	     -9.96768299	     -5.11871982	     46.98897839	      0.82011239	     -3.06398798	     -2.04007023	      0.00000000	      0.00000000	     91.08483744	     -1.86259131	      1.65370305	    111.75356397	      1.95046764	      0.14286880	     -1.92883794	      0.00000000	      0.00000000	    -58.45151887	     -2.43480125	     -2.22580630	     89.78628635	     -7.99263188	     30.86797333	     37.60715951	     20.70207404	      0.00000000	      0.00000000	     89.70894021	     -2.34165918	     32.68790405	     40.45668304	     25.22326405	      0.00000000	      0.00000000
      7.53000000	    -14.20109916	      4.71890973	      2.25659221	      0.14932945	      1.15452850	     -0.24893847	      0.00000000	      0.50000000	      0.00000000	      0.25000000	     44.69404757	    -10.65375805	     -5.05553197	     48.15123672	      0.84039762	     -2.58422939	     -1.65020057	      0.00000000	      0.00000000	     91.46478414	     -1.53434994	      1.03851485	    110.67685966	      1.93167561	     -0.86486477	     -2.36588416	      0.00000000	      0.00000000	    -58.39500769	     -2.64615019	     -2.74827558	     89.78220346	     -7.95664991	     30.97324677	     37.31027577	     20.65704882	      0.00000000	      0.00000000	     89.71628071	     -1.94671153	     32.23241266	     40.17986357	     24.96479458	      0.00000000	      0.00000000
      7.53500000	    -14.11094720	      4.74170432	      2.36408209	      0.14920603	      1.15540454	     -0.24882548	      0.00000000	      0.50000000	      0.00000000	      0.25000000	     44.62887376	    -10.81933591	     -5.09632097	     49.30496529	      0.86053398	     -2.31810053	     -1.88078753	      0.00000000	      0.00000000	     91.66583614	     -1.47670787	      0.94306737	    109.64359045	      1.91364166	     -1.78834763	     -2.04191233	      0.00000000	      0.00000000	    -58.53751162	     -2.63262380	     -2.81324158	     89.78525858	     -7.92134409	     30.97215143	     37.26751103	     20.63845145	      0.00000000	      0.00000000	     89.72241637	     -1.74352963	     32.06914691	     40.13655594	     24.88955790	      0.00000000	      0.00000000
      7.54000000	    -14.13447541	      4.83356970	      2.50126334	      0.14894738	      1.15597645	     -0.24885980	      0.00000000	      0.50000000	      0.00000000	      0.25000000	     44.79268510	    -11.05566746	     -5.03868936	     50.59943462	      0.88312673	     -1.93231992	     -2.07624522	      0.00000000	      0.00000000	     91.91639657	     -1.36182384	      0.74266110	    108.50835089	      1.89382799	     -2.96294005	     -1.98234221	      0.00000000	      0.00000000	    -58.54597128	     -2.67630744	     -2.98637113	     89.78442682	     -7.92709048	     30.91661680	     37.19825075	     20.61418616	      0.00000000	      0.00000000	     89.73081111	     -1.51488506	     31.81368369	     40.06162848	     24.78670311	      0.00000000	      0.00000000
      7.54500000	    -14.26288211	      5.10544275	      2.62682305	      0.14844384	      1.15635242	     -0.24925704	      0.00000000	      0.50000000	      0.00000000	      0.25000000	     45.27544882	    -11.50207990	     -4.75217980	     52.10070961	      0.90932893	     -1.51106825	     -1.83384029	      0.00000000	      0.00000000	     92.15435126	     -1.13302315	      0.30673755	    107.21388776	      1.87123535	     -4.49086780	     -2.69473465	      0.00000000	      0.00000000	    -58.45523327	     -2.80282547	     -3.30300127	     89.78349116	     -7.83070046	     30.76816816	     37.02600512	     20.59114451	      0.00000000	      0.00000000	     89.73517192	     -1.08776125	     31.06213697	     39.80197748	     24.49907854	      0.00000000	      0.00000000
      7.55000000	    -14.18766896	      4.97345835	      2.57214196	      0.14780997	      1.15702140	     -0.24904303	      0.00000000	      0.50000000	      0.00000000	      0.25000000	     45.48629557	    -11.48610685	     -4.86349902	     53.44550506	      0.93280003	     -1.36413923	     -2.01558365	      0.00000000	      0.00000000	     92.19192524	     -1.22228106	      0.36582747	    106.01117722	      1.85024409	     -5.63152913	     -2.40826067	      0.00000000	      0.00000000	    -58.55686123	     -2.74164190	     -3.15688669	     89.78850943	     -7.75344547	     30.72898147	     37.02288333	     20.59095848	      0.00000000	      0.00000000	     89.74208953	     -0.99922244	     30.92217586	     39.82852854	     24.45490049	      0.00000000	      0.00000000
      7.55500000	    -14.34489878	      4.94445654	      2.67318188	      0.14733977	      1.15706815	     -0.24895408	      0.00000000	      0.50000000	      0.00000000	      0.25000000	     46.03528630	    -11.54280075	     -4.67562989	     54.95855502	      0.95920774	     -1.08956449	     -2.32411168	      0.00000000	      0.00000000	     92.39689989	     -1.15211420	      0.25548040	    104.68357111	      1.82707299	     -7.24805333	     -2.61768886	      0.00000000	      0.00000000	    -58.42249794	     -2.75234960	     -3.25277606	     89.78443570	     -7.69620656	     30.57668239	     36.96931410	     20.57882169	      0.00000000	      0.00000000	     89.74558008	     -0.77624152	     30.62620908	     39.75818786	     24.33665193	      0.00000000	      0.00000000
